M48
; DRILL file {KiCad (5.1.10)-1} date 09/08/22 13:46:17
; FORMAT={-:-/ absolute / metric / decimal}
; #@! TF.CreationDate,2022-09-08T13:46:17+00:00
; #@! TF.GenerationSoftware,Kicad,Pcbnew,(5.1.10)-1
; #@! TF.FileFunction,Plated,1,2,PTH
FMAT,2
METRIC
T1C0.800
T2C1.000
T3C1.300
%
G90
G05
T1
X126.5Y-99.5
X126.5Y-123.0
X130.0Y-96.0
X130.125Y-123.5
X132.0Y-86.5
X132.0Y-128.5
X134.5Y-92.0
X134.5Y-126.0
X137.5Y-126.0
X137.5Y-89.0
X143.5Y-68.5
X143.765Y-100.765
X146.0Y-65.5
X146.0Y-104.0
X149.0Y-80.5
X149.5Y-96.5
X150.0Y-111.0
X150.26Y-100.76
X161.5Y-51.5
X161.5Y-59.5
X181.42Y-97.0
X183.96Y-91.92
X186.5Y-97.0
X197.42Y-97.0
X199.96Y-91.92
X202.5Y-97.0
X211.5Y-62.0
X218.5Y-62.0
T2
X118.88Y-38.0
X119.74Y-81.44
X119.74Y-83.98
X119.74Y-86.52
X119.74Y-89.06
X119.74Y-91.6
X119.74Y-94.14
X119.74Y-96.68
X119.74Y-99.22
X119.74Y-103.28
X119.74Y-105.82
X119.74Y-108.36
X119.74Y-110.9
X119.74Y-113.44
X119.74Y-115.98
X119.74Y-118.52
X119.74Y-121.06
X119.74Y-123.6
X119.74Y-126.14
X121.42Y-38.0
X123.96Y-38.0
X126.5Y-38.0
X129.04Y-38.0
X131.58Y-38.0
X138.26Y-55.5
X140.8Y-55.5
X143.34Y-55.5
X145.88Y-55.5
X148.42Y-55.5
X150.96Y-55.5
X153.5Y-55.5
X158.5Y-100.76
X158.5Y-103.3
X158.5Y-105.84
X158.5Y-108.38
X158.5Y-110.92
X158.5Y-113.46
X158.5Y-116.0
X168.0Y-81.44
X168.0Y-83.98
X168.0Y-86.52
X168.0Y-89.06
X168.0Y-91.6
X168.0Y-94.14
X168.0Y-99.22
X168.0Y-101.76
X168.0Y-104.3
X168.0Y-106.84
X168.0Y-109.38
X168.0Y-111.92
X168.0Y-114.46
X168.0Y-117.0
X168.72Y-43.0
X168.72Y-58.24
X171.26Y-43.0
X171.26Y-58.24
X173.8Y-43.0
X173.8Y-58.24
X176.34Y-43.0
X176.34Y-58.24
X178.88Y-43.0
X178.88Y-58.24
X181.42Y-43.0
X181.42Y-58.24
X183.96Y-43.0
X183.96Y-58.24
X186.5Y-43.0
X186.5Y-58.24
X196.0Y-61.0
X198.54Y-61.0
X201.08Y-61.0
X215.0Y-68.0
X217.5Y-75.5
X217.54Y-68.0
X220.04Y-75.5
X220.08Y-68.0
X221.0Y-37.0
X222.58Y-75.5
X222.62Y-68.0
X223.54Y-37.0
X225.12Y-75.5
X225.16Y-68.0
X226.08Y-37.0
X227.7Y-68.0
X228.62Y-37.0
X231.16Y-37.0
X233.7Y-37.0
T3
X181.0Y-109.5
X181.0Y-122.0
X186.0Y-109.5
X186.0Y-122.0
X197.5Y-109.5
X197.5Y-122.0
X202.5Y-109.5
X202.5Y-122.0
X220.0Y-109.5
X220.0Y-122.0
X225.0Y-109.5
X225.0Y-122.0
T0
M30
